<?xml version="1.0" standalone="no"?>
<!DOCTYPE svg PUBLIC "-//W3C//DTD SVG 20010904//EN"
 "http://www.w3.org/TR/2001/REC-SVG-20010904/DTD/svg10.dtd">
<svg version="1.0" xmlns="http://www.w3.org/2000/svg"
 width="200.000000pt" height="200.000000pt" viewBox="0 0 200.000000 200.000000"
 preserveAspectRatio="xMidYMid meet">
<metadata>
Created by potrace 1.11, written by Peter Selinger 2001-2013
</metadata>
<g transform="translate(0.000000,200.000000) scale(0.100000,-0.100000)"
fill="#000000" stroke="none">
<path d="M828 1969 c-13 -3 -34 -11 -45 -17 -11 -7 -38 -14 -58 -16 -21 -3
-42 -11 -46 -18 -7 -10 -9 -10 -9 2 0 9 -3 11 -8 5 -4 -6 -14 -10 -22 -10 -20
1 -39 -17 -32 -30 2 -5 -1 -5 -8 2 -10 10 -23 6 -59 -15 -25 -14 -47 -30 -49
-34 -2 -4 -10 -8 -18 -8 -8 0 -17 -7 -20 -15 -4 -8 -10 -12 -15 -9 -5 3 -9 -3
-9 -12 0 -10 -3 -15 -6 -11 -8 8 -94 -84 -88 -95 3 -5 2 -8 -3 -7 -22 4 -31
-3 -28 -21 2 -11 0 -18 -5 -15 -11 7 -43 -52 -35 -65 3 -5 -1 -7 -9 -4 -9 3
-17 -3 -22 -18 -4 -12 -12 -27 -19 -33 -24 -19 -68 -186 -65 -245 2 -30 3 -65
4 -77 1 -13 3 -23 6 -23 3 0 5 -24 4 -53 0 -28 3 -68 6 -88 4 -19 3 -44 -1
-55 -4 -13 0 -27 15 -43 l21 -24 -25 13 c-23 12 -24 12 -10 -4 17 -22 22 -46
8 -43 -6 1 -12 -6 -13 -17 -2 -10 -16 -31 -30 -46 -18 -19 -23 -30 -15 -35 8
-5 8 -10 -1 -21 -9 -11 -8 -14 7 -14 16 0 17 -2 4 -10 -11 -7 -11 -10 -2 -10
7 0 10 -4 7 -10 -3 -5 -3 -16 2 -22 4 -7 8 -17 8 -23 1 -5 5 -9 10 -8 6 1 11
-11 12 -25 0 -15 6 -28 12 -30 6 -2 11 -13 11 -23 0 -11 4 -17 10 -14 5 3 10
0 10 -7 0 -8 15 -31 34 -51 18 -20 32 -37 29 -37 -2 0 2 -6 9 -13 6 -8 32 -14
56 -16 77 -4 93 -15 165 -119 20 -28 37 -54 37 -56 0 -10 192 -196 219 -212
17 -10 31 -22 31 -26 0 -27 248 -38 380 -17 36 5 74 11 85 13 194 30 323 84
347 145 6 14 37 80 69 146 32 66 60 134 63 150 3 17 11 56 19 87 8 32 13 59
11 60 -1 2 -5 51 -8 108 -3 58 -8 116 -11 130 -3 14 -8 43 -11 65 -8 58 -8 59
-19 67 -6 5 -5 8 4 8 11 0 11 3 0 17 -8 10 -9 14 -2 10 8 -5 11 0 10 13 -1 13
-6 19 -16 15 -11 -4 -11 -2 -3 8 8 10 9 23 1 48 -6 19 -12 71 -14 116 -3 62
-12 104 -39 180 -61 164 -71 181 -168 285 -10 10 -18 23 -18 28 0 6 -5 10 -11
10 -5 0 -7 4 -4 10 3 6 -1 7 -9 4 -11 -4 -16 0 -16 12 0 16 -2 17 -10 4 -6
-10 -10 -11 -10 -2 0 6 -9 21 -20 32 -20 20 -36 27 -26 12 3 -5 -1 -9 -8 -9
-8 0 -11 8 -8 19 2 10 -1 18 -7 18 -7 0 -9 -4 -6 -10 3 -6 -1 -7 -9 -4 -9 3
-15 9 -14 12 2 20 -3 25 -12 12 -7 -11 -10 -11 -10 -2 0 7 -4 10 -10 7 -6 -4
-7 1 -3 11 4 12 3 15 -6 10 -7 -4 -20 2 -32 16 -11 13 -18 18 -15 13 2 -6 -5
-11 -17 -12 -12 0 -16 1 -9 4 6 3 12 9 12 14 0 4 -7 6 -15 3 -10 -4 -13 -2
-10 8 4 9 0 15 -9 15 -8 0 -13 -4 -10 -9 3 -4 0 -8 -5 -8 -6 0 -11 4 -11 9 0
12 -67 34 -80 26 -5 -3 -21 2 -35 11 -27 18 -158 26 -207 13z m-618 -1004 c0
-7 -30 -13 -34 -7 -3 4 4 9 15 9 10 1 19 0 19 -2z m-66 -163 c3 -5 -1 -9 -9
-9 -8 0 -12 4 -9 9 3 4 7 8 9 8 2 0 6 -4 9 -8z"/>
</g>
</svg>
